<svg id="Layer_1" data-name="Layer 1" xmlns="http://www.w3.org/2000/svg" viewBox="0 0 443.37 88.08"><defs><style>.cls-1{fill:#0f5aa6;}.cls-2{fill:#fff;}.cls-3{fill:#8299ca;}.cls-4{fill:#3055a0;}</style></defs><title>VSAG_logo_newtag</title><rect class="cls-1" width="88.08" height="87.09" rx="7.28" ry="7.28"/><path class="cls-2" d="M71.88,80.14a7.2,7.2,0,1,0,7.2,7.2,7.19,7.19,0,0,0-7.2-7.2" transform="translate(-20.63 -12.78)"/><path class="cls-2" d="M40.57,53.45a7.2,7.2,0,1,0-7.2,7.2,7.2,7.2,0,0,0,7.2-7.2" transform="translate(-20.63 -12.78)"/><path class="cls-2" d="M67.15,67A9.28,9.28,0,1,0,54,67.42,9.27,9.27,0,0,0,67.15,67" transform="translate(-20.63 -12.78)"/><path class="cls-2" d="M92.84,48.8a16.07,16.07,0,1,0-22.71.8,16.07,16.07,0,0,0,22.71-.8" transform="translate(-20.63 -12.78)"/><path class="cls-2" d="M36.52,69.33A3.94,3.94,0,1,0,33,73.65a3.93,3.93,0,0,0,3.5-4.32" transform="translate(-20.63 -12.78)"/><path class="cls-2" d="M54.23,84.66a3.93,3.93,0,1,0,4.33,3.5,3.94,3.94,0,0,0-4.33-3.5" transform="translate(-20.63 -12.78)"/><path class="cls-3" d="M47,81a2.82,2.82,0,1,0,3.1,2.51A2.82,2.82,0,0,0,47,81" transform="translate(-20.63 -12.78)"/><path class="cls-3" d="M41.47,76.4A2.82,2.82,0,1,0,39,79.5a2.81,2.81,0,0,0,2.51-3.1" transform="translate(-20.63 -12.78)"/><path class="cls-2" d="M47.15,68.79a4.88,4.88,0,1,0,5.36,4.34,4.88,4.88,0,0,0-5.36-4.34" transform="translate(-20.63 -12.78)"/><path class="cls-3" d="M102.44,57.34a7.63,7.63,0,1,0-3.87,10.08,7.65,7.65,0,0,0,3.87-10.08" transform="translate(-20.63 -12.78)"/><path class="cls-3" d="M46.73,53.76a1.91,1.91,0,1,0-1.18-2.42,1.91,1.91,0,0,0,1.18,2.42" transform="translate(-20.63 -12.78)"/><path class="cls-3" d="M49.75,44.13a3.82,3.82,0,1,0-2.36-4.85,3.82,3.82,0,0,0,2.36,4.85" transform="translate(-20.63 -12.78)"/><path class="cls-3" d="M39.45,61.27a4.13,4.13,0,1,0,5.25-2.56,4.14,4.14,0,0,0-5.25,2.56" transform="translate(-20.63 -12.78)"/><path class="cls-3" d="M60,73a4.13,4.13,0,1,0,2.56,5.25A4.14,4.14,0,0,0,60,73" transform="translate(-20.63 -12.78)"/><path class="cls-3" d="M54.06,32.49a7.63,7.63,0,1,0-4.74-9.7,7.64,7.64,0,0,0,4.74,9.7" transform="translate(-20.63 -12.78)"/><path class="cls-3" d="M70.45,73.67a1.91,1.91,0,1,0-2.52-1,1.89,1.89,0,0,0,2.52,1" transform="translate(-20.63 -12.78)"/><path class="cls-2" d="M34,82a1.91,1.91,0,1,0-2.42,1.18A1.91,1.91,0,0,0,34,82" transform="translate(-20.63 -12.78)"/><path class="cls-2" d="M41.61,87.79a1.91,1.91,0,1,0,2.52,1,1.91,1.91,0,0,0-2.52-1" transform="translate(-20.63 -12.78)"/><path class="cls-2" d="M37.69,82.3a1.9,1.9,0,1,0,2.52,1,1.9,1.9,0,0,0-2.52-1" transform="translate(-20.63 -12.78)"/><path class="cls-3" d="M32.4,87.9a1.91,1.91,0,1,0,2.52,1,1.91,1.91,0,0,0-2.52-1" transform="translate(-20.63 -12.78)"/><path class="cls-3" d="M79.51,64.13a3.81,3.81,0,1,0,5,1.93,3.81,3.81,0,0,0-5-1.93" transform="translate(-20.63 -12.78)"/><polygon class="cls-1" points="113.7 54.86 121.28 24.52 118.2 24.52 111.73 51.22 105.25 24.52 102.16 24.52 109.75 54.86 113.7 54.86"/><path class="cls-1" d="M178.06,65.67A11.49,11.49,0,0,0,185,68.15c5.11,0,8.09-3.18,8.09-8.25,0-5.66-4.2-8-7.69-9.86-2.42-1.27-4.4-3-4.4-5.57s1.41-4.75,4.75-4.75A8.38,8.38,0,0,1,191.56,42V38.56a10.63,10.63,0,0,0-5.82-1.78A7.41,7.41,0,0,0,178,44.52c0,5.55,4,7.43,7.34,9.16,2.52,1.32,4.75,3.14,4.75,6.27s-1.47,5.31-5.11,5.31a11.2,11.2,0,0,1-6.93-3Z" transform="translate(-20.63 -12.78)"/><path class="cls-1" d="M236.72,40l4.61,17.76h-9.21Zm2.07-2.72h-4.15L226.5,67.64h3l1.81-6.92h10.73l1.82,6.92h3Z" transform="translate(-20.63 -12.78)"/><path class="cls-1" d="M293.46,36.78c-7.84,0-10.22,5.11-10.22,15.69,0,10.37,2.38,15.69,9.72,15.69,3.49,0,5.41-1.92,7.83-1.92V52.47H292.7v2.92h5.05V63.8a9.74,9.74,0,0,1-4.8,1.46c-5.51,0-6.69-4.55-6.69-12.79s1.07-12.75,7.19-12.75a9.48,9.48,0,0,1,6.38,2.63V38.86a12,12,0,0,0-6.38-2.08" transform="translate(-20.63 -12.78)"/><rect class="cls-1" x="137.92" y="18.47" width="2.64" height="42.37"/><rect class="cls-1" x="241.49" y="18.47" width="2.64" height="42.37"/><rect class="cls-1" x="188.14" y="18.47" width="2.64" height="42.37"/><path class="cls-4" d="M125,93.08l1.49-.14A3.63,3.63,0,0,0,127,94.5a2.71,2.71,0,0,0,1.2,1,4.31,4.31,0,0,0,1.83.37,4.16,4.16,0,0,0,1.59-.28,2.22,2.22,0,0,0,1-.78,1.88,1.88,0,0,0,.34-1.08,1.71,1.71,0,0,0-.33-1,2.41,2.41,0,0,0-1.07-.75,20.23,20.23,0,0,0-2.12-.62,10.4,10.4,0,0,1-2.3-.79,3.29,3.29,0,0,1-1.27-1.18,3,3,0,0,1-.42-1.57A3.35,3.35,0,0,1,126,86a3.21,3.21,0,0,1,1.5-1.26,5.39,5.39,0,0,1,2.19-.43,5.67,5.67,0,0,1,2.34.45,3.41,3.41,0,0,1,1.56,1.33,4,4,0,0,1,.58,2l-1.51.12a2.64,2.64,0,0,0-.83-1.81,3.08,3.08,0,0,0-2.08-.61,3.19,3.19,0,0,0-2.08.56,1.7,1.7,0,0,0-.65,1.34,1.48,1.48,0,0,0,.46,1.12,6.07,6.07,0,0,0,2.38.9,15.12,15.12,0,0,1,2.64.81A3.66,3.66,0,0,1,134,91.78a3.27,3.27,0,0,1,.5,1.8,3.58,3.58,0,0,1-.54,1.9,3.64,3.64,0,0,1-1.56,1.39,5.19,5.19,0,0,1-2.3.5,6.51,6.51,0,0,1-2.71-.5,3.85,3.85,0,0,1-1.71-1.5A4.44,4.44,0,0,1,125,93.08Z" transform="translate(-20.63 -12.78)"/><path class="cls-4" d="M142.4,94.2l1.51.2a4,4,0,0,1-1.32,2.18,4.29,4.29,0,0,1-5.47-.46A5,5,0,0,1,136,92.65a5.25,5.25,0,0,1,1.12-3.58A3.69,3.69,0,0,1,140,87.79,3.59,3.59,0,0,1,142.86,89a5.16,5.16,0,0,1,1.1,3.52q0,.14,0,.41h-6.44a3.64,3.64,0,0,0,.8,2.31,2.33,2.33,0,0,0,1.8.8,2.15,2.15,0,0,0,1.37-.45A3,3,0,0,0,142.4,94.2Zm-4.8-2.51h4.82a3.22,3.22,0,0,0-.55-1.73,2.19,2.19,0,0,0-1.81-.9,2.26,2.26,0,0,0-1.69.72A2.91,2.91,0,0,0,137.59,91.69Z" transform="translate(-20.63 -12.78)"/><path class="cls-4" d="M145.73,97.14V88H147v1.39A3.76,3.76,0,0,1,148,88.1a1.56,1.56,0,0,1,.94-.31,2.74,2.74,0,0,1,1.5.5l-.5,1.44a2,2,0,0,0-1.07-.34,1.34,1.34,0,0,0-.86.31,1.66,1.66,0,0,0-.54.85,6.38,6.38,0,0,0-.24,1.81v4.79Z" transform="translate(-20.63 -12.78)"/><path class="cls-4" d="M153.68,97.14,150.4,88h1.54l1.85,5.48q.3.89.55,1.84.19-.72.54-1.74L156.81,88h1.5L155,97.14Z" transform="translate(-20.63 -12.78)"/><path class="cls-4" d="M159.62,86.29V84.51h1.46v1.78Zm0,10.85V88h1.46v9.15Z" transform="translate(-20.63 -12.78)"/><path class="cls-4" d="M163.31,97.14V88h1.32v1.3a3.05,3.05,0,0,1,2.75-1.51,3.42,3.42,0,0,1,1.43.3,2.28,2.28,0,0,1,1,.78,3.09,3.09,0,0,1,.46,1.15,9.4,9.4,0,0,1,.08,1.51v5.63h-1.46V91.58a4.42,4.42,0,0,0-.17-1.42,1.47,1.47,0,0,0-.61-.75,1.84,1.84,0,0,0-1-.28,2.29,2.29,0,0,0-1.61.63,3.22,3.22,0,0,0-.68,2.39v5Z" transform="translate(-20.63 -12.78)"/><path class="cls-4" d="M172.29,97.9l1.42.22a1.47,1.47,0,0,0,.5,1,2.33,2.33,0,0,0,1.49.43,2.5,2.5,0,0,0,1.57-.43,2.13,2.13,0,0,0,.75-1.21,10.52,10.52,0,0,0,.11-2,3,3,0,0,1-2.39,1.2A3.19,3.19,0,0,1,173,95.78a5.46,5.46,0,0,1-1-3.27,6.39,6.39,0,0,1,.45-2.42,3.76,3.76,0,0,1,1.3-1.71,3.36,3.36,0,0,1,2-.6,3,3,0,0,1,2.52,1.31V88h1.35V95.9a7.92,7.92,0,0,1-.41,3,3.11,3.11,0,0,1-1.3,1.41,4.3,4.3,0,0,1-2.19.52,4,4,0,0,1-2.5-.74A2.55,2.55,0,0,1,172.29,97.9Zm1.21-5.5a4.14,4.14,0,0,0,.67,2.63,2.14,2.14,0,0,0,3.38,0,4,4,0,0,0,.68-2.58,3.91,3.91,0,0,0-.7-2.53,2.13,2.13,0,0,0-1.69-.85,2.07,2.07,0,0,0-1.66.84A3.89,3.89,0,0,0,173.51,92.4Z" transform="translate(-20.63 -12.78)"/><path class="cls-4" d="M189.64,95.76l.21,1.37a5.15,5.15,0,0,1-1.11.14,2.39,2.39,0,0,1-1.24-.27,1.46,1.46,0,0,1-.62-.7,5.87,5.87,0,0,1-.18-1.83V89.2h-1.07V88h1.07V85.73l1.45-.93V88h1.47V89.2h-1.47v5.35a2.84,2.84,0,0,0,.08.85.64.64,0,0,0,.25.3.93.93,0,0,0,.5.11A4.5,4.5,0,0,0,189.64,95.76Z" transform="translate(-20.63 -12.78)"/><path class="cls-4" d="M191.07,97.14V84.51h1.46V89a3.19,3.19,0,0,1,2.58-1.26,3.32,3.32,0,0,1,1.67.4,2.29,2.29,0,0,1,1,1.11,5.38,5.38,0,0,1,.3,2v5.8h-1.46v-5.8a2.49,2.49,0,0,0-.48-1.69,1.71,1.71,0,0,0-1.34-.53,2.27,2.27,0,0,0-1.22.36,2,2,0,0,0-.82,1,4.7,4.7,0,0,0-.24,1.69v5Z" transform="translate(-20.63 -12.78)"/><path class="cls-4" d="M206.23,94.2l1.51.2a4,4,0,0,1-1.32,2.18,4.29,4.29,0,0,1-5.47-.46,5,5,0,0,1-1.11-3.47A5.25,5.25,0,0,1,201,89.06a3.69,3.69,0,0,1,2.91-1.27A3.59,3.59,0,0,1,206.7,89a5.16,5.16,0,0,1,1.1,3.52q0,.14,0,.41h-6.44a3.64,3.64,0,0,0,.8,2.31,2.33,2.33,0,0,0,1.8.8,2.15,2.15,0,0,0,1.37-.45A3,3,0,0,0,206.23,94.2Zm-4.8-2.51h4.82A3.22,3.22,0,0,0,205.7,90a2.19,2.19,0,0,0-1.81-.9,2.26,2.26,0,0,0-1.69.72A2.91,2.91,0,0,0,201.43,91.69Z" transform="translate(-20.63 -12.78)"/><path class="cls-4" d="M214.42,97.14V84.51H223V86h-7v3.87h6.59v1.48H216v4.3h7.31v1.49Z" transform="translate(-20.63 -12.78)"/><path class="cls-4" d="M225.31,97.14V88h1.32v1.3a3.05,3.05,0,0,1,2.75-1.51,3.42,3.42,0,0,1,1.43.3,2.28,2.28,0,0,1,1,.78,3.09,3.09,0,0,1,.46,1.15,9.4,9.4,0,0,1,.08,1.51v5.63h-1.46V91.58a4.42,4.42,0,0,0-.17-1.42,1.47,1.47,0,0,0-.61-.75,1.84,1.84,0,0,0-1-.28,2.29,2.29,0,0,0-1.61.63,3.22,3.22,0,0,0-.68,2.39v5Z" transform="translate(-20.63 -12.78)"/><path class="cls-4" d="M237.76,95.76l.21,1.37a5.15,5.15,0,0,1-1.11.14,2.39,2.39,0,0,1-1.24-.27,1.46,1.46,0,0,1-.62-.7,5.87,5.87,0,0,1-.18-1.83V89.2h-1.07V88h1.07V85.73l1.45-.93V88h1.47V89.2h-1.47v5.35a2.84,2.84,0,0,0,.08.85.64.64,0,0,0,.25.3.93.93,0,0,0,.5.11A4.5,4.5,0,0,0,237.76,95.76Z" transform="translate(-20.63 -12.78)"/><path class="cls-4" d="M239.17,97.14V88h1.32v1.39a3.76,3.76,0,0,1,.93-1.28,1.56,1.56,0,0,1,.94-.31,2.74,2.74,0,0,1,1.5.5l-.5,1.44a2,2,0,0,0-1.07-.34,1.34,1.34,0,0,0-.86.31,1.66,1.66,0,0,0-.54.85,6.38,6.38,0,0,0-.24,1.81v4.79Z" transform="translate(-20.63 -12.78)"/><path class="cls-4" d="M250.64,94.2l1.51.2a4,4,0,0,1-1.32,2.18,4.29,4.29,0,0,1-5.47-.46,5,5,0,0,1-1.11-3.47,5.25,5.25,0,0,1,1.12-3.58,3.69,3.69,0,0,1,2.91-1.27A3.59,3.59,0,0,1,251.1,89a5.16,5.16,0,0,1,1.1,3.52q0,.14,0,.41h-6.44a3.64,3.64,0,0,0,.8,2.31,2.33,2.33,0,0,0,1.8.8,2.15,2.15,0,0,0,1.37-.45A3,3,0,0,0,250.64,94.2Zm-4.8-2.51h4.82A3.22,3.22,0,0,0,250.1,90a2.19,2.19,0,0,0-1.81-.9,2.26,2.26,0,0,0-1.69.72A2.91,2.91,0,0,0,245.83,91.69Z" transform="translate(-20.63 -12.78)"/><path class="cls-4" d="M254,100.65V88h1.33v1.19a3.36,3.36,0,0,1,1.06-1,2.79,2.79,0,0,1,1.44-.35,3.28,3.28,0,0,1,2,.6,3.67,3.67,0,0,1,1.28,1.7,6.54,6.54,0,0,1,.43,2.41A6.44,6.44,0,0,1,261,95a3.75,3.75,0,0,1-1.38,1.72,3.41,3.41,0,0,1-1.91.6A2.62,2.62,0,0,1,256.4,97a3,3,0,0,1-1-.83v4.45Zm1.32-8a4.15,4.15,0,0,0,.67,2.61,2,2,0,0,0,1.63.84,2.07,2.07,0,0,0,1.67-.87,4.33,4.33,0,0,0,.69-2.71,4.22,4.22,0,0,0-.68-2.62,2,2,0,0,0-1.62-.87,2.07,2.07,0,0,0-1.65.93A4.32,4.32,0,0,0,255.31,92.62Z" transform="translate(-20.63 -12.78)"/><path class="cls-4" d="M263.23,97.14V88h1.32v1.39a3.76,3.76,0,0,1,.93-1.28,1.56,1.56,0,0,1,.94-.31,2.74,2.74,0,0,1,1.5.5l-.5,1.44a2,2,0,0,0-1.07-.34,1.34,1.34,0,0,0-.86.31,1.66,1.66,0,0,0-.54.85,6.38,6.38,0,0,0-.24,1.81v4.79Z" transform="translate(-20.63 -12.78)"/><path class="cls-4" d="M274.69,94.2l1.51.2a4,4,0,0,1-1.32,2.18,4.29,4.29,0,0,1-5.47-.46,5,5,0,0,1-1.11-3.47,5.25,5.25,0,0,1,1.12-3.58,3.69,3.69,0,0,1,2.91-1.27A3.59,3.59,0,0,1,275.16,89a5.16,5.16,0,0,1,1.1,3.52q0,.14,0,.41h-6.44a3.64,3.64,0,0,0,.8,2.31,2.33,2.33,0,0,0,1.8.8,2.15,2.15,0,0,0,1.37-.45A3,3,0,0,0,274.69,94.2Zm-4.8-2.51h4.82a3.22,3.22,0,0,0-.55-1.73,2.19,2.19,0,0,0-1.81-.9,2.26,2.26,0,0,0-1.69.72A2.91,2.91,0,0,0,269.89,91.69Z" transform="translate(-20.63 -12.78)"/><path class="cls-4" d="M278,97.14V88h1.32v1.3a3.05,3.05,0,0,1,2.75-1.51,3.42,3.42,0,0,1,1.43.3,2.28,2.28,0,0,1,1,.78A3.09,3.09,0,0,1,285,90a9.4,9.4,0,0,1,.08,1.51v5.63h-1.46V91.58a4.42,4.42,0,0,0-.17-1.42,1.47,1.47,0,0,0-.61-.75,1.84,1.84,0,0,0-1-.28,2.29,2.29,0,0,0-1.61.63,3.22,3.22,0,0,0-.68,2.39v5Z" transform="translate(-20.63 -12.78)"/><path class="cls-4" d="M293.21,94.2l1.51.2a4,4,0,0,1-1.32,2.18,4.29,4.29,0,0,1-5.47-.46,5,5,0,0,1-1.11-3.47,5.25,5.25,0,0,1,1.12-3.58,3.69,3.69,0,0,1,2.91-1.27A3.59,3.59,0,0,1,293.67,89a5.16,5.16,0,0,1,1.1,3.52q0,.14,0,.41h-6.44a3.64,3.64,0,0,0,.8,2.31,2.33,2.33,0,0,0,1.8.8,2.15,2.15,0,0,0,1.37-.45A3,3,0,0,0,293.21,94.2Zm-4.8-2.51h4.82a3.22,3.22,0,0,0-.55-1.73,2.19,2.19,0,0,0-1.81-.9,2.26,2.26,0,0,0-1.69.72A2.91,2.91,0,0,0,288.4,91.69Z" transform="translate(-20.63 -12.78)"/><path class="cls-4" d="M302.21,97.14V95.8a3.12,3.12,0,0,1-2.74,1.55A3.32,3.32,0,0,1,298,97a2.37,2.37,0,0,1-1-.78,3,3,0,0,1-.45-1.15,8.35,8.35,0,0,1-.09-1.45V88H298v5.08a9.58,9.58,0,0,0,.09,1.64,1.63,1.63,0,0,0,.59,1,1.74,1.74,0,0,0,1.1.35,2.31,2.31,0,0,0,1.24-.36,2,2,0,0,0,.82-1,5.16,5.16,0,0,0,.24-1.79V88h1.46v9.15Z" transform="translate(-20.63 -12.78)"/><path class="cls-4" d="M305.8,97.14V88h1.32v1.39A3.76,3.76,0,0,1,308,88.1a1.56,1.56,0,0,1,.94-.31,2.74,2.74,0,0,1,1.5.5l-.5,1.44a2,2,0,0,0-1.07-.34,1.34,1.34,0,0,0-.86.31,1.66,1.66,0,0,0-.54.85,6.38,6.38,0,0,0-.24,1.81v4.79Z" transform="translate(-20.63 -12.78)"/><path class="cls-4" d="M321.61,96A5.41,5.41,0,0,1,320,97a4.29,4.29,0,0,1-1.61.3,3,3,0,0,1-2.19-.74,2.5,2.5,0,0,1-.76-1.88,2.63,2.63,0,0,1,.29-1.23,2.49,2.49,0,0,1,.76-.89,3.46,3.46,0,0,1,1.05-.51,9.73,9.73,0,0,1,1.3-.23,12.76,12.76,0,0,0,2.61-.53c0-.21,0-.35,0-.41a1.78,1.78,0,0,0-.41-1.34,2.36,2.36,0,0,0-1.67-.53,2.47,2.47,0,0,0-1.52.38,2.38,2.38,0,0,0-.73,1.36l-1.43-.21a3.87,3.87,0,0,1,.64-1.57,2.82,2.82,0,0,1,1.29-.92,5.48,5.48,0,0,1,2-.32,4.92,4.92,0,0,1,1.8.28,2.36,2.36,0,0,1,1,.69,2.52,2.52,0,0,1,.46,1.06,9.25,9.25,0,0,1,.07,1.43v2.07a23.23,23.23,0,0,0,.09,2.74,3.59,3.59,0,0,0,.37,1.1H321.9A3.45,3.45,0,0,1,321.61,96Zm-.12-3.46a10.21,10.21,0,0,1-2.39.58,5.34,5.34,0,0,0-1.28.31,1.3,1.3,0,0,0-.58.5,1.39,1.39,0,0,0-.2.74,1.35,1.35,0,0,0,.44,1,1.83,1.83,0,0,0,1.3.41,2.88,2.88,0,0,0,1.5-.39,2.35,2.35,0,0,0,1-1.07,4,4,0,0,0,.24-1.55Z" transform="translate(-20.63 -12.78)"/><path class="cls-4" d="M325.23,97.14V88h1.32v1.3a3.05,3.05,0,0,1,2.75-1.51,3.42,3.42,0,0,1,1.43.3,2.28,2.28,0,0,1,1,.78,3.09,3.09,0,0,1,.46,1.15,9.4,9.4,0,0,1,.08,1.51v5.63h-1.46V91.58a4.42,4.42,0,0,0-.17-1.42,1.47,1.47,0,0,0-.61-.75,1.84,1.84,0,0,0-1-.28,2.29,2.29,0,0,0-1.61.63,3.22,3.22,0,0,0-.68,2.39v5Z" transform="translate(-20.63 -12.78)"/><path class="cls-4" d="M340.09,97.14V96a2.65,2.65,0,0,1-2.41,1.36,3.25,3.25,0,0,1-1.9-.6,3.91,3.91,0,0,1-1.34-1.68,6.12,6.12,0,0,1-.48-2.49,6.85,6.85,0,0,1,.43-2.49,3.57,3.57,0,0,1,1.29-1.71,3.32,3.32,0,0,1,1.93-.59,2.75,2.75,0,0,1,1.39.35,3,3,0,0,1,1,.91V84.51h1.45V97.14Zm-4.62-4.57a4.14,4.14,0,0,0,.7,2.63,2.07,2.07,0,0,0,1.65.87,2,2,0,0,0,1.63-.83,4,4,0,0,0,.67-2.54,4.5,4.5,0,0,0-.68-2.76,2.06,2.06,0,0,0-1.68-.88,2,2,0,0,0-1.63.84A4.35,4.35,0,0,0,335.47,92.58Z" transform="translate(-20.63 -12.78)"/><path class="cls-4" d="M351.57,95.76l.21,1.37a5.15,5.15,0,0,1-1.11.14,2.39,2.39,0,0,1-1.24-.27,1.46,1.46,0,0,1-.62-.7,5.87,5.87,0,0,1-.18-1.83V89.2h-1.07V88h1.07V85.73l1.45-.93V88h1.47V89.2h-1.47v5.35a2.84,2.84,0,0,0,.08.85.64.64,0,0,0,.25.3.93.93,0,0,0,.5.11A4.5,4.5,0,0,0,351.57,95.76Z" transform="translate(-20.63 -12.78)"/><path class="cls-4" d="M353,97.14V84.51h1.46V89A3.19,3.19,0,0,1,357,87.79a3.32,3.32,0,0,1,1.67.4,2.29,2.29,0,0,1,1,1.11,5.38,5.38,0,0,1,.3,2v5.8h-1.46v-5.8a2.49,2.49,0,0,0-.48-1.69,1.71,1.71,0,0,0-1.34-.53,2.27,2.27,0,0,0-1.22.36,2,2,0,0,0-.82,1,4.7,4.7,0,0,0-.24,1.69v5Z" transform="translate(-20.63 -12.78)"/><path class="cls-4" d="M368.16,94.2l1.51.2a4,4,0,0,1-1.32,2.18,4.29,4.29,0,0,1-5.47-.46,5,5,0,0,1-1.11-3.47,5.25,5.25,0,0,1,1.12-3.58,3.69,3.69,0,0,1,2.91-1.27A3.59,3.59,0,0,1,368.62,89a5.16,5.16,0,0,1,1.1,3.52q0,.14,0,.41h-6.44a3.64,3.64,0,0,0,.8,2.31,2.33,2.33,0,0,0,1.8.8,2.15,2.15,0,0,0,1.37-.45A3,3,0,0,0,368.16,94.2Zm-4.8-2.51h4.82a3.22,3.22,0,0,0-.55-1.73,2.19,2.19,0,0,0-1.81-.9,2.26,2.26,0,0,0-1.69.72A2.91,2.91,0,0,0,363.36,91.69Z" transform="translate(-20.63 -12.78)"/><path class="cls-4" d="M376.4,97.14V84.51h8V86H378v3.91h5.59V91.4H378v5.74Z" transform="translate(-20.63 -12.78)"/><path class="cls-4" d="M385.76,92.57a4.87,4.87,0,0,1,1.33-3.76,3.88,3.88,0,0,1,2.71-1A3.76,3.76,0,0,1,392.71,89a4.88,4.88,0,0,1,1.13,3.42,6.37,6.37,0,0,1-.5,2.78,3.66,3.66,0,0,1-1.45,1.57,4,4,0,0,1-2.08.56,3.77,3.77,0,0,1-2.93-1.23A5.11,5.11,0,0,1,385.76,92.57Zm1.5,0A4.06,4.06,0,0,0,388,95.2a2.32,2.32,0,0,0,3.63,0,4.16,4.16,0,0,0,.72-2.68,3.94,3.94,0,0,0-.73-2.57,2.32,2.32,0,0,0-3.63,0A4,4,0,0,0,387.26,92.57Z" transform="translate(-20.63 -12.78)"/><path class="cls-4" d="M395.54,97.14V88h1.32v1.39a3.76,3.76,0,0,1,.93-1.28,1.56,1.56,0,0,1,.94-.31,2.74,2.74,0,0,1,1.5.5l-.5,1.44a2,2,0,0,0-1.07-.34,1.34,1.34,0,0,0-.86.31,1.66,1.66,0,0,0-.54.85,6.38,6.38,0,0,0-.24,1.81v4.79Z" transform="translate(-20.63 -12.78)"/><path class="cls-4" d="M404.29,95.76l.21,1.37a5.15,5.15,0,0,1-1.11.14,2.39,2.39,0,0,1-1.24-.27,1.46,1.46,0,0,1-.62-.7,5.87,5.87,0,0,1-.18-1.83V89.2h-1.07V88h1.07V85.73l1.45-.93V88h1.47V89.2h-1.47v5.35a2.84,2.84,0,0,0,.08.85.64.64,0,0,0,.25.3.93.93,0,0,0,.5.11A4.5,4.5,0,0,0,404.29,95.76Z" transform="translate(-20.63 -12.78)"/><path class="cls-4" d="M411.38,97.14V95.8a3.12,3.12,0,0,1-2.74,1.55,3.32,3.32,0,0,1-1.43-.31,2.37,2.37,0,0,1-1-.78,3,3,0,0,1-.45-1.15,8.35,8.35,0,0,1-.09-1.45V88h1.46v5.08a9.58,9.58,0,0,0,.09,1.64,1.63,1.63,0,0,0,.59,1,1.74,1.74,0,0,0,1.1.35,2.31,2.31,0,0,0,1.24-.36,2,2,0,0,0,.82-1,5.16,5.16,0,0,0,.24-1.79V88h1.46v9.15Z" transform="translate(-20.63 -12.78)"/><path class="cls-4" d="M415,97.14V88h1.32v1.3A3.05,3.05,0,0,1,419,87.79a3.42,3.42,0,0,1,1.43.3,2.28,2.28,0,0,1,1,.78,3.09,3.09,0,0,1,.46,1.15,9.4,9.4,0,0,1,.08,1.51v5.63h-1.46V91.58a4.42,4.42,0,0,0-.17-1.42,1.47,1.47,0,0,0-.61-.75,1.84,1.84,0,0,0-1-.28,2.29,2.29,0,0,0-1.61.63,3.22,3.22,0,0,0-.68,2.39v5Z" transform="translate(-20.63 -12.78)"/><path class="cls-4" d="M430.14,94.2l1.51.2a4,4,0,0,1-1.32,2.18,4.29,4.29,0,0,1-5.47-.46,5,5,0,0,1-1.11-3.47,5.25,5.25,0,0,1,1.12-3.58,3.69,3.69,0,0,1,2.91-1.27A3.59,3.59,0,0,1,430.61,89a5.16,5.16,0,0,1,1.1,3.52q0,.14,0,.41h-6.44a3.64,3.64,0,0,0,.8,2.31,2.33,2.33,0,0,0,1.8.8,2.15,2.15,0,0,0,1.37-.45A3,3,0,0,0,430.14,94.2Zm-4.8-2.51h4.82a3.22,3.22,0,0,0-.55-1.73,2.19,2.19,0,0,0-1.81-.9,2.26,2.26,0,0,0-1.69.72A2.91,2.91,0,0,0,425.34,91.69Z" transform="translate(-20.63 -12.78)"/><path class="cls-4" d="M437.71,93.83l1.54-.14a3,3,0,0,0,.79,1.79,2.08,2.08,0,0,0,1.5.6,2.28,2.28,0,0,0,1.79-.84,3.3,3.3,0,0,0,.73-2.24,3,3,0,0,0-.7-2.09,2.38,2.38,0,0,0-1.84-.77,2.43,2.43,0,0,0-1.28.34,2.54,2.54,0,0,0-.89.88L438,91.17l1.15-6.49H445v1.48h-4.75l-.64,3.39a3.73,3.73,0,0,1,2.25-.79,3.47,3.47,0,0,1,2.63,1.15,4.14,4.14,0,0,1,1.07,2.95,4.78,4.78,0,0,1-.94,3,4,4,0,0,1-5.78.57A3.85,3.85,0,0,1,437.71,93.83Z" transform="translate(-20.63 -12.78)"/><path class="cls-4" d="M447,90.91a12.2,12.2,0,0,1,.43-3.61,4.52,4.52,0,0,1,1.29-2.11,3.18,3.18,0,0,1,2.16-.74,3.36,3.36,0,0,1,1.68.41A3.31,3.31,0,0,1,453.73,86a6.53,6.53,0,0,1,.74,1.88,13.21,13.21,0,0,1,.27,3,12.25,12.25,0,0,1-.43,3.59A4.51,4.51,0,0,1,453,96.61a3.48,3.48,0,0,1-4.87-.56Q447,94.47,447,90.91Zm1.5,0q0,3.11.69,4.14a1.91,1.91,0,0,0,3.39,0q.69-1,.69-4.14t-.69-4.14a2,2,0,0,0-1.71-1,1.85,1.85,0,0,0-1.61.9A8.42,8.42,0,0,0,448.47,90.91Z" transform="translate(-20.63 -12.78)"/><path class="cls-4" d="M456.22,90.91a12.2,12.2,0,0,1,.43-3.61A4.52,4.52,0,0,1,458,85.2a3.18,3.18,0,0,1,2.16-.74,3.36,3.36,0,0,1,1.68.41A3.31,3.31,0,0,1,463,86a6.53,6.53,0,0,1,.74,1.88,13.21,13.21,0,0,1,.27,3,12.25,12.25,0,0,1-.43,3.59,4.51,4.51,0,0,1-1.29,2.11A3.48,3.48,0,0,1,457.4,96Q456.22,94.47,456.22,90.91Zm1.5,0q0,3.11.69,4.14a1.91,1.91,0,0,0,3.39,0q.69-1,.69-4.14t-.69-4.14a2,2,0,0,0-1.71-1,1.85,1.85,0,0,0-1.61.9A8.42,8.42,0,0,0,457.73,90.91Z" transform="translate(-20.63 -12.78)"/></svg>